<svg width="241" height="66" viewBox="0 0 241 66" fill="none" xmlns="http://www.w3.org/2000/svg">
<path d="M16.64 65.576C15.36 65.576 14.272 65.2773 13.376 64.68C12.48 64.04 11.7547 63.0373 11.2 61.672L2.176 39.336C1.70667 38.1413 1.55733 37.096 1.728 36.2C1.89867 35.2613 2.34667 34.5147 3.072 33.96C3.84 33.3627 4.88533 33.064 6.208 33.064C7.31733 33.064 8.23467 33.3413 8.96 33.896C9.68533 34.408 10.304 35.4107 10.816 36.904L17.856 55.656H16.384L23.68 36.072C24.0213 35.048 24.512 34.3013 25.152 33.832C25.8347 33.32 26.7093 33.064 27.776 33.064C28.8427 33.064 29.696 33.32 30.336 33.832C31.0187 34.344 31.552 35.0907 31.936 36.072L39.104 55.656H37.888L44.864 36.648C45.376 35.2827 46.0373 34.344 46.848 33.832C47.6587 33.32 48.5333 33.064 49.472 33.064C50.6667 33.064 51.584 33.3627 52.224 33.96C52.9067 34.5573 53.2907 35.3253 53.376 36.264C53.504 37.2027 53.3333 38.2267 52.864 39.336L43.904 61.672C43.392 62.9947 42.6667 63.976 41.728 64.616C40.832 65.256 39.744 65.576 38.464 65.576C37.2267 65.576 36.1387 65.256 35.2 64.616C34.304 63.976 33.5787 62.9947 33.024 61.672L25.344 41.704H29.504L22.016 61.608C21.504 62.9307 20.8 63.9333 19.904 64.616C19.008 65.256 17.92 65.576 16.64 65.576ZM68.836 65.704C66.532 65.704 64.4627 65.256 62.628 64.36C60.7933 63.464 59.364 62.248 58.34 60.712C57.316 59.176 56.804 57.448 56.804 55.528C56.804 53.224 57.4013 51.4107 58.596 50.088C59.7907 48.7227 61.732 47.7627 64.42 47.208C67.108 46.6107 70.6707 46.312 75.108 46.312H78.5V51.304H75.172C72.996 51.304 71.2253 51.432 69.86 51.688C68.5373 51.9013 67.5773 52.2853 66.98 52.84C66.4253 53.3947 66.148 54.1627 66.148 55.144C66.148 56.3387 66.5533 57.32 67.364 58.088C68.2173 58.856 69.4333 59.24 71.012 59.24C72.2493 59.24 73.3373 58.9627 74.276 58.408C75.2573 57.8107 76.0253 57.0213 76.58 56.04C77.1347 55.016 77.412 53.864 77.412 52.584V45.224C77.412 43.3467 76.9853 42.024 76.132 41.256C75.2787 40.4453 73.828 40.04 71.78 40.04C70.628 40.04 69.3693 40.1893 68.004 40.488C66.6813 40.744 65.2093 41.192 63.588 41.832C62.6493 42.2587 61.8173 42.3653 61.092 42.152C60.3667 41.896 59.812 41.4693 59.428 40.872C59.044 40.232 58.852 39.5493 58.852 38.824C58.852 38.056 59.0653 37.3307 59.492 36.648C59.9187 35.9227 60.6227 35.3893 61.604 35.048C63.6093 34.2373 65.4867 33.6827 67.236 33.384C69.028 33.0853 70.6707 32.936 72.164 32.936C75.4493 32.936 78.1373 33.4267 80.228 34.408C82.3613 35.3467 83.9613 36.8187 85.028 38.824C86.0947 40.7867 86.628 43.3253 86.628 46.44V60.648C86.628 62.2267 86.244 63.4427 85.476 64.296C84.708 65.1493 83.5987 65.576 82.148 65.576C80.6973 65.576 79.5667 65.1493 78.756 64.296C77.988 63.4427 77.604 62.2267 77.604 60.648V58.28L78.052 58.664C77.796 60.1147 77.2413 61.3733 76.388 62.44C75.5773 63.464 74.532 64.2747 73.252 64.872C71.972 65.4267 70.5 65.704 68.836 65.704ZM106.837 65.576C105.599 65.576 104.511 65.256 103.573 64.616C102.634 63.9333 101.887 62.9307 101.333 61.608L91.6685 39.336C91.1992 38.2267 91.0285 37.2027 91.1565 36.264C91.2845 35.2827 91.7325 34.5147 92.5005 33.96C93.3112 33.3627 94.4205 33.064 95.8285 33.064C96.9805 33.064 97.9192 33.3413 98.6445 33.896C99.3698 34.408 100.01 35.4107 100.565 36.904L108.117 56.104H106.069L113.941 36.84C114.538 35.3893 115.199 34.408 115.925 33.896C116.65 33.3413 117.653 33.064 118.933 33.064C120.042 33.064 120.917 33.3627 121.557 33.96C122.239 34.5147 122.645 35.2613 122.773 36.2C122.943 37.1387 122.773 38.1627 122.261 39.272L112.405 61.608C111.85 62.9733 111.103 63.976 110.165 64.616C109.269 65.256 108.159 65.576 106.837 65.576ZM143.282 65.704C139.57 65.704 136.37 65.0427 133.682 63.72C131.037 62.3547 128.989 60.456 127.538 58.024C126.13 55.5493 125.426 52.648 125.426 49.32C125.426 46.0773 126.109 43.24 127.474 40.808C128.839 38.3333 130.738 36.4133 133.17 35.048C135.645 33.64 138.439 32.936 141.554 32.936C143.815 32.936 145.863 33.32 147.698 34.088C149.533 34.8133 151.111 35.88 152.434 37.288C153.757 38.6533 154.759 40.3387 155.442 42.344C156.125 44.3067 156.466 46.504 156.466 48.936C156.466 49.7467 156.21 50.3653 155.698 50.792C155.186 51.176 154.439 51.368 153.458 51.368H133.362V46.376H149.49L148.466 47.272C148.466 45.5227 148.21 44.072 147.698 42.92C147.186 41.7253 146.439 40.8293 145.458 40.232C144.519 39.6347 143.346 39.336 141.938 39.336C140.359 39.336 139.015 39.6987 137.906 40.424C136.797 41.1493 135.943 42.1947 135.346 43.56C134.749 44.9253 134.45 46.568 134.45 48.488V49C134.45 52.2427 135.197 54.632 136.69 56.168C138.226 57.704 140.487 58.472 143.474 58.472C144.498 58.472 145.671 58.344 146.994 58.088C148.317 57.832 149.554 57.4267 150.706 56.872C151.687 56.4027 152.562 56.2533 153.33 56.424C154.098 56.552 154.695 56.8933 155.122 57.448C155.549 58.0027 155.783 58.6427 155.826 59.368C155.911 60.0933 155.762 60.8187 155.378 61.544C154.994 62.2267 154.354 62.8027 153.458 63.272C152.007 64.0827 150.365 64.68 148.53 65.064C146.738 65.4907 144.989 65.704 143.282 65.704Z" fill="#C084B0"/>
<path d="M173.415 65.704C169.618 65.704 166.78 64.6587 164.903 62.568C163.026 60.4347 162.087 57.2773 162.087 53.096V24.232C162.087 22.6107 162.492 21.3947 163.303 20.584C164.156 19.7307 165.372 19.304 166.951 19.304C168.487 19.304 169.66 19.7307 170.471 20.584C171.324 21.3947 171.751 22.6107 171.751 24.232V52.712C171.751 54.4613 172.114 55.7627 172.839 56.616C173.607 57.4267 174.61 57.832 175.847 57.832C176.188 57.832 176.508 57.8107 176.807 57.768C177.106 57.7253 177.426 57.704 177.767 57.704C178.45 57.6187 178.919 57.832 179.175 58.344C179.474 58.8133 179.623 59.7733 179.623 61.224C179.623 62.504 179.367 63.4853 178.855 64.168C178.343 64.808 177.554 65.2347 176.487 65.448C176.06 65.4907 175.57 65.5333 175.015 65.576C174.46 65.6613 173.927 65.704 173.415 65.704ZM199.407 65.704C195.695 65.704 192.495 65.0427 189.807 63.72C187.162 62.3547 185.114 60.456 183.663 58.024C182.255 55.5493 181.551 52.648 181.551 49.32C181.551 46.0773 182.234 43.24 183.599 40.808C184.964 38.3333 186.863 36.4133 189.295 35.048C191.77 33.64 194.564 32.936 197.679 32.936C199.94 32.936 201.988 33.32 203.823 34.088C205.658 34.8133 207.236 35.88 208.559 37.288C209.882 38.6533 210.884 40.3387 211.567 42.344C212.25 44.3067 212.591 46.504 212.591 48.936C212.591 49.7467 212.335 50.3653 211.823 50.792C211.311 51.176 210.564 51.368 209.583 51.368H189.487V46.376H205.615L204.591 47.272C204.591 45.5227 204.335 44.072 203.823 42.92C203.311 41.7253 202.564 40.8293 201.583 40.232C200.644 39.6347 199.471 39.336 198.063 39.336C196.484 39.336 195.14 39.6987 194.031 40.424C192.922 41.1493 192.068 42.1947 191.471 43.56C190.874 44.9253 190.575 46.568 190.575 48.488V49C190.575 52.2427 191.322 54.632 192.815 56.168C194.351 57.704 196.612 58.472 199.599 58.472C200.623 58.472 201.796 58.344 203.119 58.088C204.442 57.832 205.679 57.4267 206.831 56.872C207.812 56.4027 208.687 56.2533 209.455 56.424C210.223 56.552 210.82 56.8933 211.247 57.448C211.674 58.0027 211.908 58.6427 211.951 59.368C212.036 60.0933 211.887 60.8187 211.503 61.544C211.119 62.2267 210.479 62.8027 209.583 63.272C208.132 64.0827 206.49 64.68 204.655 65.064C202.863 65.4907 201.114 65.704 199.407 65.704ZM233.449 65.704C230.505 65.704 228.03 65.2133 226.025 64.232C224.062 63.2507 222.59 61.8213 221.609 59.944C220.67 58.0667 220.201 55.6987 220.201 52.84V40.808H217.513C216.318 40.808 215.379 40.488 214.697 39.848C214.056 39.208 213.736 38.3333 213.736 37.224C213.736 36.0293 214.056 35.1333 214.697 34.536C215.379 33.896 216.318 33.576 217.513 33.576H220.201V28.712C220.201 27.0907 220.627 25.8747 221.481 25.064C222.334 24.2107 223.529 23.784 225.065 23.784C226.643 23.784 227.838 24.2107 228.649 25.064C229.459 25.8747 229.865 27.0907 229.865 28.712V33.576H235.945C237.139 33.576 238.057 33.896 238.697 34.536C239.337 35.1333 239.657 36.0293 239.657 37.224C239.657 38.3333 239.337 39.208 238.697 39.848C238.057 40.488 237.139 40.808 235.945 40.808H229.865V52.456C229.865 54.248 230.27 55.592 231.081 56.488C231.934 57.384 233.278 57.832 235.113 57.832C235.753 57.832 236.35 57.768 236.905 57.64C237.459 57.512 237.971 57.4267 238.441 57.384C239.038 57.3413 239.529 57.5333 239.913 57.96C240.297 58.344 240.489 59.2187 240.489 60.584C240.489 61.608 240.318 62.504 239.977 63.272C239.635 64.04 239.038 64.5947 238.185 64.936C237.63 65.1493 236.862 65.32 235.881 65.448C234.942 65.6187 234.131 65.704 233.449 65.704Z" fill="#F9A8D4"/>
<path d="M16.64 65.576C15.36 65.576 14.272 65.2773 13.376 64.68C12.48 64.04 11.7547 63.0373 11.2 61.672L2.176 39.336C1.70667 38.1413 1.55733 37.096 1.728 36.2C1.89867 35.2613 2.34667 34.5147 3.072 33.96C3.84 33.3627 4.88533 33.064 6.208 33.064C7.31733 33.064 8.23467 33.3413 8.96 33.896C9.68533 34.408 10.304 35.4107 10.816 36.904L17.856 55.656H16.384L23.68 36.072C24.0213 35.048 24.512 34.3013 25.152 33.832C25.8347 33.32 26.7093 33.064 27.776 33.064C28.8427 33.064 29.696 33.32 30.336 33.832C31.0187 34.344 31.552 35.0907 31.936 36.072L39.104 55.656H37.888L44.864 36.648C45.376 35.2827 46.0373 34.344 46.848 33.832C47.6587 33.32 48.5333 33.064 49.472 33.064C50.6667 33.064 51.584 33.3627 52.224 33.96C52.9067 34.5573 53.2907 35.3253 53.376 36.264C53.504 37.2027 53.3333 38.2267 52.864 39.336L43.904 61.672C43.392 62.9947 42.6667 63.976 41.728 64.616C40.832 65.256 39.744 65.576 38.464 65.576C37.2267 65.576 36.1387 65.256 35.2 64.616C34.304 63.976 33.5787 62.9947 33.024 61.672L25.344 41.704H29.504L22.016 61.608C21.504 62.9307 20.8 63.9333 19.904 64.616C19.008 65.256 17.92 65.576 16.64 65.576ZM68.836 65.704C66.532 65.704 64.4627 65.256 62.628 64.36C60.7933 63.464 59.364 62.248 58.34 60.712C57.316 59.176 56.804 57.448 56.804 55.528C56.804 53.224 57.4013 51.4107 58.596 50.088C59.7907 48.7227 61.732 47.7627 64.42 47.208C67.108 46.6107 70.6707 46.312 75.108 46.312H78.5V51.304H75.172C72.996 51.304 71.2253 51.432 69.86 51.688C68.5373 51.9013 67.5773 52.2853 66.98 52.84C66.4253 53.3947 66.148 54.1627 66.148 55.144C66.148 56.3387 66.5533 57.32 67.364 58.088C68.2173 58.856 69.4333 59.24 71.012 59.24C72.2493 59.24 73.3373 58.9627 74.276 58.408C75.2573 57.8107 76.0253 57.0213 76.58 56.04C77.1347 55.016 77.412 53.864 77.412 52.584V45.224C77.412 43.3467 76.9853 42.024 76.132 41.256C75.2787 40.4453 73.828 40.04 71.78 40.04C70.628 40.04 69.3693 40.1893 68.004 40.488C66.6813 40.744 65.2093 41.192 63.588 41.832C62.6493 42.2587 61.8173 42.3653 61.092 42.152C60.3667 41.896 59.812 41.4693 59.428 40.872C59.044 40.232 58.852 39.5493 58.852 38.824C58.852 38.056 59.0653 37.3307 59.492 36.648C59.9187 35.9227 60.6227 35.3893 61.604 35.048C63.6093 34.2373 65.4867 33.6827 67.236 33.384C69.028 33.0853 70.6707 32.936 72.164 32.936C75.4493 32.936 78.1373 33.4267 80.228 34.408C82.3613 35.3467 83.9613 36.8187 85.028 38.824C86.0947 40.7867 86.628 43.3253 86.628 46.44V60.648C86.628 62.2267 86.244 63.4427 85.476 64.296C84.708 65.1493 83.5987 65.576 82.148 65.576C80.6973 65.576 79.5667 65.1493 78.756 64.296C77.988 63.4427 77.604 62.2267 77.604 60.648V58.28L78.052 58.664C77.796 60.1147 77.2413 61.3733 76.388 62.44C75.5773 63.464 74.532 64.2747 73.252 64.872C71.972 65.4267 70.5 65.704 68.836 65.704ZM106.837 65.576C105.599 65.576 104.511 65.256 103.573 64.616C102.634 63.9333 101.887 62.9307 101.333 61.608L91.6685 39.336C91.1992 38.2267 91.0285 37.2027 91.1565 36.264C91.2845 35.2827 91.7325 34.5147 92.5005 33.96C93.3112 33.3627 94.4205 33.064 95.8285 33.064C96.9805 33.064 97.9192 33.3413 98.6445 33.896C99.3698 34.408 100.01 35.4107 100.565 36.904L108.117 56.104H106.069L113.941 36.84C114.538 35.3893 115.199 34.408 115.925 33.896C116.65 33.3413 117.653 33.064 118.933 33.064C120.042 33.064 120.917 33.3627 121.557 33.96C122.239 34.5147 122.645 35.2613 122.773 36.2C122.943 37.1387 122.773 38.1627 122.261 39.272L112.405 61.608C111.85 62.9733 111.103 63.976 110.165 64.616C109.269 65.256 108.159 65.576 106.837 65.576ZM143.282 65.704C139.57 65.704 136.37 65.0427 133.682 63.72C131.037 62.3547 128.989 60.456 127.538 58.024C126.13 55.5493 125.426 52.648 125.426 49.32C125.426 46.0773 126.109 43.24 127.474 40.808C128.839 38.3333 130.738 36.4133 133.17 35.048C135.645 33.64 138.439 32.936 141.554 32.936C143.815 32.936 145.863 33.32 147.698 34.088C149.533 34.8133 151.111 35.88 152.434 37.288C153.757 38.6533 154.759 40.3387 155.442 42.344C156.125 44.3067 156.466 46.504 156.466 48.936C156.466 49.7467 156.21 50.3653 155.698 50.792C155.186 51.176 154.439 51.368 153.458 51.368H133.362V46.376H149.49L148.466 47.272C148.466 45.5227 148.21 44.072 147.698 42.92C147.186 41.7253 146.439 40.8293 145.458 40.232C144.519 39.6347 143.346 39.336 141.938 39.336C140.359 39.336 139.015 39.6987 137.906 40.424C136.797 41.1493 135.943 42.1947 135.346 43.56C134.749 44.9253 134.45 46.568 134.45 48.488V49C134.45 52.2427 135.197 54.632 136.69 56.168C138.226 57.704 140.487 58.472 143.474 58.472C144.498 58.472 145.671 58.344 146.994 58.088C148.317 57.832 149.554 57.4267 150.706 56.872C151.687 56.4027 152.562 56.2533 153.33 56.424C154.098 56.552 154.695 56.8933 155.122 57.448C155.549 58.0027 155.783 58.6427 155.826 59.368C155.911 60.0933 155.762 60.8187 155.378 61.544C154.994 62.2267 154.354 62.8027 153.458 63.272C152.007 64.0827 150.365 64.68 148.53 65.064C146.738 65.4907 144.989 65.704 143.282 65.704Z" fill="#C084B0"/>
<path d="M173.415 65.704C169.618 65.704 166.78 64.6587 164.903 62.568C163.026 60.4347 162.087 57.2773 162.087 53.096V24.232C162.087 22.6107 162.492 21.3947 163.303 20.584C164.156 19.7307 165.372 19.304 166.951 19.304C168.487 19.304 169.66 19.7307 170.471 20.584C171.324 21.3947 171.751 22.6107 171.751 24.232V52.712C171.751 54.4613 172.114 55.7627 172.839 56.616C173.607 57.4267 174.61 57.832 175.847 57.832C176.188 57.832 176.508 57.8107 176.807 57.768C177.106 57.7253 177.426 57.704 177.767 57.704C178.45 57.6187 178.919 57.832 179.175 58.344C179.474 58.8133 179.623 59.7733 179.623 61.224C179.623 62.504 179.367 63.4853 178.855 64.168C178.343 64.808 177.554 65.2347 176.487 65.448C176.06 65.4907 175.57 65.5333 175.015 65.576C174.46 65.6613 173.927 65.704 173.415 65.704ZM199.407 65.704C195.695 65.704 192.495 65.0427 189.807 63.72C187.162 62.3547 185.114 60.456 183.663 58.024C182.255 55.5493 181.551 52.648 181.551 49.32C181.551 46.0773 182.234 43.24 183.599 40.808C184.964 38.3333 186.863 36.4133 189.295 35.048C191.77 33.64 194.564 32.936 197.679 32.936C199.94 32.936 201.988 33.32 203.823 34.088C205.658 34.8133 207.236 35.88 208.559 37.288C209.882 38.6533 210.884 40.3387 211.567 42.344C212.25 44.3067 212.591 46.504 212.591 48.936C212.591 49.7467 212.335 50.3653 211.823 50.792C211.311 51.176 210.564 51.368 209.583 51.368H189.487V46.376H205.615L204.591 47.272C204.591 45.5227 204.335 44.072 203.823 42.92C203.311 41.7253 202.564 40.8293 201.583 40.232C200.644 39.6347 199.471 39.336 198.063 39.336C196.484 39.336 195.14 39.6987 194.031 40.424C192.922 41.1493 192.068 42.1947 191.471 43.56C190.874 44.9253 190.575 46.568 190.575 48.488V49C190.575 52.2427 191.322 54.632 192.815 56.168C194.351 57.704 196.612 58.472 199.599 58.472C200.623 58.472 201.796 58.344 203.119 58.088C204.442 57.832 205.679 57.4267 206.831 56.872C207.812 56.4027 208.687 56.2533 209.455 56.424C210.223 56.552 210.82 56.8933 211.247 57.448C211.674 58.0027 211.908 58.6427 211.951 59.368C212.036 60.0933 211.887 60.8187 211.503 61.544C211.119 62.2267 210.479 62.8027 209.583 63.272C208.132 64.0827 206.49 64.68 204.655 65.064C202.863 65.4907 201.114 65.704 199.407 65.704ZM233.449 65.704C230.505 65.704 228.03 65.2133 226.025 64.232C224.062 63.2507 222.59 61.8213 221.609 59.944C220.67 58.0667 220.201 55.6987 220.201 52.84V40.808H217.513C216.318 40.808 215.379 40.488 214.697 39.848C214.056 39.208 213.736 38.3333 213.736 37.224C213.736 36.0293 214.056 35.1333 214.697 34.536C215.379 33.896 216.318 33.576 217.513 33.576H220.201V28.712C220.201 27.0907 220.627 25.8747 221.481 25.064C222.334 24.2107 223.529 23.784 225.065 23.784C226.643 23.784 227.838 24.2107 228.649 25.064C229.459 25.8747 229.865 27.0907 229.865 28.712V33.576H235.945C237.139 33.576 238.057 33.896 238.697 34.536C239.337 35.1333 239.657 36.0293 239.657 37.224C239.657 38.3333 239.337 39.208 238.697 39.848C238.057 40.488 237.139 40.808 235.945 40.808H229.865V52.456C229.865 54.248 230.27 55.592 231.081 56.488C231.934 57.384 233.278 57.832 235.113 57.832C235.753 57.832 236.35 57.768 236.905 57.64C237.459 57.512 237.971 57.4267 238.441 57.384C239.038 57.3413 239.529 57.5333 239.913 57.96C240.297 58.344 240.489 59.2187 240.489 60.584C240.489 61.608 240.318 62.504 239.977 63.272C239.635 64.04 239.038 64.5947 238.185 64.936C237.63 65.1493 236.862 65.32 235.881 65.448C234.942 65.6187 234.131 65.704 233.449 65.704Z" fill="#F9A8D4"/>
</svg>
